<?xml version="1.0" encoding="utf-8"?>
<!-- Generator: Adobe Illustrator 18.0.0, SVG Export Plug-In . SVG Version: 6.00 Build 0)  -->
<!DOCTYPE svg PUBLIC "-//W3C//DTD SVG 1.1//EN" "http://www.w3.org/Graphics/SVG/1.1/DTD/svg11.dtd">
<svg version="1.1" id="logo" xmlns="http://www.w3.org/2000/svg" xmlns:xlink="http://www.w3.org/1999/xlink" x="0px" y="0px"
	 viewBox="0 0 188 27" enable-background="new 0 0 188 27" xml:space="preserve">
<path id="sign" fill="#FFFFFF" d="M32.1,8.5h7.3c-1.3,3.9-2.6,7.9-3.9,11.8c-0.2,0.5-0.3,1-0.5,1.5c-0.2,0.5-0.3,1-0.5,1.5
	c-0.4,1-1.1,1.8-2.1,2.3c-1.1,0.6-1.9,0.5-3,0.5c-1,0-2.1,0-3.1,0L32.1,8.5z M18.7,20c1,0,2.1,0,3.1,0c1.2,0,1.9,0.1,3-0.5
	c0.9-0.5,1.7-1.3,2.1-2.3c0.2-0.5,0.3-1,0.5-1.5c0.2-0.5,0.3-1,0.5-1.5c1.3-3.9,2.6-7.9,3.9-11.8h-7.3L18.7,20z M10.6,15.6L9.2,20
	c0.9,0,1.8,0,2.8,0c0.5,0,0.9,0,1.4,0c0.5,0,0.9-0.1,1.4-0.2c0.9-0.3,1.7-0.9,2.2-1.6c0.3-0.4,0.5-0.8,0.6-1.2
	c0.1-0.4,0.3-0.9,0.4-1.3C17.9,15.6,10.6,15.6,10.6,15.6z M13.1,8.3l-1.5,4.4c0.9,0,1.8,0,2.8,0c0.5,0,0.9,0,1.4,0
	c0.5,0,0.9-0.1,1.4-0.2c0.9-0.3,1.7-0.9,2.2-1.6c0.3-0.4,0.5-0.8,0.6-1.2c0.1-0.4,0.3-0.9,0.4-1.3H13.1z"/>
<path id="text" fill="#FFFFFF" d="M83.1,13.4c-0.1,0.4-0.3,0.9-0.4,1.3s-0.3,0.8-0.3,1.3c0,1,0.6,1.7,1.4,2.1c1-0.2,1.8-0.8,2.4-1.6
	c0.6-0.8,0.9-1.7,1.2-2.7c0.6-1.9,1.2-3.7,1.9-5.6h7.3c-0.6,1.7-1.1,3.3-1.7,5c-0.3,0.8-0.6,1.7-0.8,2.5c-0.3,0.9-0.5,1.6-1.1,2.4
	c-0.6,0.7-1.3,1.2-2.2,1.4c-0.3,0.1-2.3,0.4-2.6,0.4c-1.7,0.3-3.5,0.5-5.2,0.8c-2.2-0.4-4.4-0.7-6.6-1.1c-1.6-0.3-2.1-1.2-1.6-2.9
	c0.9-2.8,1.9-5.6,2.8-8.4h7.3C84.2,10,83.7,11.7,83.1,13.4z M149.5,20c0.4-1.2,0.8-2.5,1.2-3.7c0.2-0.6,0.4-1.2,0.6-1.9
	c0.1-0.2,0.6-1.7,0.6-1.9c0.5-1.2,1.5-2.2,2.8-2.6c0.6-0.2,1.3-0.2,2-0.2c0.7,0,1.3,0,2,0l0.5-1.5c-2,0-4.1,0-6.1,0
	c-1,0-2.1,0-3.1,0c-1.2,0-1.9,0-3,0.6c-0.9,0.5-1.6,1.3-1.9,2.3c-0.3,1-0.6,1.9-1,2.9c-0.6,1.9-1.3,3.9-1.9,5.8H149.5z M143.9,8.3
	c-0.8,2.4-1.6,4.8-2.4,7.2c-0.1,0.2-0.5,1.6-0.6,1.8c-0.3,0.6-0.6,1.1-1.1,1.6c-0.5,0.5-1,0.8-1.7,0.9c-0.6,0.2-1.2,0.2-1.8,0.2
	c-5.1,0-10.1,0-15.2,0c0.8-2.4,1.6-4.8,2.4-7.2c0.1-0.2,0.5-1.6,0.6-1.8c0.3-0.6,0.6-1.1,1.1-1.6c0.5-0.5,1-0.8,1.7-0.9
	c0.6-0.2,1.2-0.2,1.8-0.2C133.8,8.3,138.8,8.3,143.9,8.3z M136.1,9.8c-1.2,0-2-0.1-3.1,0.4c-1,0.5-1.7,1.3-2.1,2.3
	c-0.2,0.5-0.3,1-0.5,1.5c-0.2,0.5-0.3,1-0.5,1.5c-0.3,1-0.7,2-1,3c1.2,0,2,0.1,3.1-0.4c1-0.5,1.7-1.3,2.1-2.3c0.2-0.5,0.3-1,0.5-1.5
	c0.2-0.5,0.3-1,0.5-1.5C135.5,11.8,135.8,10.8,136.1,9.8z M109.2,13c0.3,0.5,0.5,1.1,0.8,1.6c0.1,0.3,0.3,0.5,0.4,0.8
	c0.1,0.3,0.2,0.6,0.2,0.9c0,1.3-1,2.3-2.2,2.3c-1.2,0-2.4,0-3.6,0l-0.5,1.5h15.1l0.5-1.5c-0.6-1.1-1.1-2.2-1.7-3.2
	c-0.3-0.5-0.6-1.1-0.9-1.6c-0.3-0.5-0.6-1-0.6-1.7c0-0.6,0.3-1.2,0.7-1.6c0.5-0.5,1-0.6,1.7-0.6c1.2,0,2.4,0,3.7,0l0.5-1.5h-15.1
	l-0.5,1.5C108.2,10.8,108.7,11.9,109.2,13z M94.8,20c0.8,0,1.6,0,2.3,0c0.4,0,2,0,2.3,0c1.6-0.2,2.9-1.3,3.5-2.7
	c0.1-0.4,0.3-0.7,0.4-1.1c0.1-0.4,0.2-0.7,0.4-1.1c0.2-0.7,0.5-1.5,0.7-2.2c0.5-1.5,1-3,1.5-4.4h-7.3L94.8,20z M107.9,2.5h-7.3
	l-1.5,4.4c0.9,0,1.8,0,2.8,0c0.5,0,0.9,0,1.4,0c0.5,0,0.9-0.1,1.4-0.2c0.9-0.3,1.7-0.9,2.2-1.6c0.3-0.4,0.5-0.8,0.6-1.2
	C107.6,3.3,107.8,2.9,107.9,2.5z M77.3,2.5H70l-1.5,4.4c0.9,0,1.8,0,2.8,0c0.5,0,0.9,0,1.4,0c0.5,0,0.9-0.1,1.4-0.2
	c0.9-0.3,1.7-0.9,2.2-1.6c0.3-0.4,0.5-0.8,0.6-1.2C77,3.3,77.1,2.9,77.3,2.5z M64.1,20c0.8,0,1.6,0,2.3,0c0.4,0,2,0,2.3,0
	c1.6-0.2,2.9-1.3,3.5-2.7c0.1-0.4,0.3-0.7,0.4-1.1c0.1-0.4,0.2-0.7,0.4-1.1c0.2-0.7,0.5-1.5,0.7-2.2c0.5-1.5,1-3,1.5-4.4H68L64.1,20
	z M68.3,1c-1,3-2,6-3,9c-0.5,1.5-1,3-1.5,4.5c-0.3,0.8-0.5,1.5-0.8,2.3c-0.3,0.8-0.6,1.4-1.3,2c-0.6,0.6-1.3,0.9-2.2,1.1
	C59.2,20,58.8,20,58.5,20c-0.4,0-0.8,0-1.2,0c-1.6,0-3.2,0-4.8,0c-3.2,0-6.4,0-9.5,0c0.8-2.4,1.6-4.7,2.4-7.1
	c0.2-0.6,0.4-1.2,0.6-1.8c0.2-0.6,0.6-1.1,1-1.6c0.5-0.5,1-0.8,1.6-1c0.3-0.1,0.6-0.2,0.9-0.2c0.3,0,0.6,0,0.9,0c1.3,0,2.5,0,3.7,0
	c1.4,0,2.3,0.1,3.6-0.7c0.6-0.4,1-0.8,1.3-1.4c0.3-0.5,0.5-1.1,0.7-1.7C60.2,3.4,60.6,2.2,61,1C61,1,68.3,1,68.3,1z M58.1,9.8
	c-1.2,0-2-0.1-3.1,0.4c-1,0.5-1.7,1.3-2.1,2.3c-0.2,0.5-0.3,1-0.5,1.5c-0.2,0.5-0.3,1-0.5,1.5c-0.3,1-0.7,2-1,3c1.2,0,2,0.1,3.1-0.4
	c1-0.5,1.7-1.3,2.1-2.3c0.2-0.5,0.3-1,0.5-1.5c0.2-0.5,0.3-1,0.5-1.5C57.4,11.8,57.7,10.8,58.1,9.8z M168.5,20
	c-0.5,1.5-1.9,2.6-3.5,2.9c-0.4,0.1-2,0-2.4,0c-0.8,0-1.6,0-2.4,0l-0.5,1.5c3,0,6,0,9,0c0.7,0,1.5,0,2.2,0c0.8,0,1.5-0.1,2.2-0.5
	c0.7-0.4,1.3-0.8,1.7-1.5c0.4-0.6,0.6-1.3,0.8-2c0.9-2.9,1.9-5.7,2.8-8.5c0.3-0.8,0.5-1.3,0.1-2.2c-0.3-0.7-1-1.2-1.7-1.3
	c-0.4,0-0.7,0-1.1,0s-0.7,0-1.1,0c-0.8,0-1.5,0-2.3,0c-0.8,2.3-1.5,4.5-2.3,6.8c-0.2,0.6-0.4,1.1-0.7,1.6c-0.4,0.5-0.8,0.9-1.3,1.2
	c-1.2,0.7-2.2,0.6-3.5,0.6L168,8.3h-7.3c-0.6,1.7-1.2,3.5-1.7,5.2c-0.3,0.9-0.6,1.7-0.9,2.6c-0.3,0.9-0.7,1.7-0.2,2.6
	c0.2,0.4,0.5,0.7,1,0.9c0.4,0.2,0.9,0.2,1.3,0.2c0.9,0,1.8,0,2.8,0C164.8,20,166.6,20,168.5,20z"/>
</svg>
